<svg id="mainLogo" width="5%" height="10%" viewBox="0 0 326 254" fill="none" xmlns="http://www.w3.org/2000/svg">
      <path d="M74 2H324V252H74V2Z" stroke="white" stroke-width="5" />
      <path
        d="M2 37H1V38V216.467V217.467H2H56.6875C76.8414 217.467 92.5598 213.003 103.705 203.937C114.885 194.843 120.432 181.88 120.432 165.197C120.432 152.725 117 142.883 110.016 135.812C103.709 129.277 94.2009 124.891 81.6182 122.562C92.1844 120.337 100.425 116.078 106.253 109.721C112.787 102.6 116.037 93.7241 116.037 83.166C116.037 67.7764 110.766 56.1322 100.121 48.4206C89.5301 40.7486 73.078 37 50.9502 37H2ZM88.2598 57.8896L88.2634 57.8919C96.5427 63.0469 100.731 71.3172 100.731 82.9219C100.731 94.5735 96.9943 102.98 89.6666 108.36C82.359 113.703 70.457 116.468 53.7578 116.468H15.4512V49.9863H50.4619C67.3968 49.9863 79.9495 52.666 88.2598 57.8896ZM56.4434 204.48H15.4512V129.454H53.7578C71.0865 129.454 83.9045 132.506 92.3671 138.458C100.765 144.364 105.004 153.219 105.004 165.197C105.004 178.41 100.95 188.158 92.983 194.634C84.9762 201.142 72.8539 204.48 56.4434 204.48Z"
        stroke="#e09956"
        stroke-width="1"
      />
      <path
        d="M266.815 160.918L266.996 159.256H265.324H250.188H248.862L248.699 160.571C246.854 175.409 242.028 186.348 234.388 193.6C226.791 200.73 215.383 204.422 199.895 204.422C184.476 204.422 172.31 198.523 163.245 186.701C154.225 174.831 149.637 158.828 149.637 138.539V116.811C149.637 95.7817 154.35 79.5104 163.594 67.8164C172.897 56.1494 185.313 50.3174 200.993 50.3174C215.261 50.3174 226.219 54.0196 234.065 61.243C241.921 68.475 246.855 79.4179 248.699 94.29L248.862 95.6055H250.188H265.324H266.979L266.817 93.9582C264.999 75.5278 258.448 60.959 247.061 50.4066C235.729 39.7483 220.311 34.5 200.993 34.5C187.225 34.5 174.977 37.9044 164.297 44.7459C153.694 51.5085 145.577 61.1431 139.935 73.5887C134.298 86.0218 131.5 100.236 131.5 116.2L131.5 139.271L131.5 139.279C131.582 155 134.423 169.05 140.058 181.398L140.06 181.402C145.699 193.676 153.689 203.224 164.04 209.985L164.045 209.988C174.481 216.751 186.448 220.117 199.895 220.117C219.042 220.117 234.52 215.078 246.17 204.854C257.912 194.62 264.751 179.913 266.815 160.918Z"
        stroke="white"
        stroke-width="1"
      />
    </svg>